<svg width="512" height="512" viewBox="0 0 512 512" fill="none" xmlns="http://www.w3.org/2000/svg">
<path d="M396.439 494.006L342.733 440.293C340.857 438.418 338.314 437.364 335.662 437.364C335.657 437.364 335.652 437.364 335.648 437.364L306.833 437.405C306.77 437.405 306.707 437.405 306.644 437.405C290.738 437.405 274.804 434.48 259.891 428.899L277.182 417.304C284.26 412.558 289.019 405.331 290.584 396.954C292.148 388.576 290.318 380.118 285.43 373.136C279.352 364.456 269.564 359.744 259.598 359.744C259.436 359.744 259.274 359.745 259.111 359.748L298.94 319.919C311.023 307.835 311.023 288.173 298.94 276.089C296 273.149 292.573 270.874 288.841 269.336C291.607 264.634 293.086 259.263 293.086 253.664C293.086 245.386 289.862 237.602 284.009 231.748C278.155 225.894 270.372 222.67 262.093 222.67C256.494 222.67 251.124 224.15 246.421 226.916C244.883 223.184 242.608 219.757 239.668 216.816C233.814 210.962 226.031 207.738 217.752 207.738C209.473 207.738 201.69 210.962 195.836 216.816L181.535 231.117C180.014 227.766 177.893 224.678 175.213 221.997C169.359 216.143 161.576 212.92 153.297 212.92C145.018 212.92 137.235 216.144 131.381 221.997L125.042 228.336L99.2708 202.71C91.7848 195.224 91.7848 183.043 99.2708 175.557C106.284 168.544 117.416 168.102 124.949 174.227L149.907 199.186C151.86 201.139 154.419 202.115 156.978 202.115C159.537 202.115 162.097 201.138 164.049 199.186C167.954 195.281 167.954 188.949 164.049 185.044L120.993 141.988C113.507 134.501 113.507 122.32 120.993 114.834C128.479 107.347 140.661 107.348 148.147 114.834L223.584 190.416C225.537 192.369 228.096 193.345 230.655 193.345C233.214 193.345 235.774 192.368 237.726 190.416C241.631 186.511 241.631 180.179 237.726 176.274L180.387 118.789C174.262 111.255 174.705 100.124 181.717 93.1119C189.204 85.6259 201.386 85.6259 208.871 93.1119L229.879 114.121C233.785 118.027 240.117 118.027 244.021 114.121C247.926 110.216 247.927 103.884 244.021 99.9789L223.013 78.9699C207.728 63.6859 182.859 63.6869 167.575 78.9699C162.524 84.021 159.154 90.1209 157.441 96.5739C150.82 91.7959 142.896 89.2109 134.57 89.2109C124.099 89.2109 114.255 93.2889 106.851 100.692C93.0927 114.45 91.7267 135.971 102.737 151.281C96.2827 152.993 90.1807 156.364 85.1287 161.416C70.7047 175.841 69.9007 198.798 82.7018 214.183C76.3908 215.926 70.4317 219.263 65.4808 224.214C50.1978 239.498 50.1978 264.367 65.4808 279.652L69.9437 284.115C53.0687 304.377 43.8978 329.658 43.9357 356.355L43.9597 372.919L2.92875 413.953C-0.97625 417.858 -0.97625 424.19 2.92875 428.096C4.88175 430.048 7.44075 431.025 9.99975 431.025C12.5588 431.025 15.1187 430.048 17.0707 428.096L61.0367 384.129C62.9157 382.25 63.9697 379.7 63.9657 377.043L63.9357 356.328C63.8997 331.474 73.5607 308.105 91.1357 290.53L140.762 240.903C140.762 240.903 140.762 240.902 140.763 240.902L145.523 236.142C147.599 234.065 150.359 232.922 153.296 232.922C156.233 232.922 158.993 234.065 161.069 236.142C163.146 238.218 164.289 240.978 164.289 243.915C164.289 246.436 163.441 248.825 161.887 250.765L148.668 263.984C144.763 267.889 144.763 274.221 148.668 278.127C148.677 278.136 148.687 278.143 148.695 278.152C148.704 278.161 148.711 278.17 148.72 278.179C150.673 280.131 153.232 281.108 155.791 281.108C158.35 281.108 160.91 280.131 162.862 278.179L209.976 230.96C212.052 228.883 214.812 227.74 217.749 227.74C220.686 227.74 223.446 228.884 225.522 230.96C229.512 234.95 229.783 241.268 226.343 245.58L178.355 293.673C174.45 297.578 174.45 303.91 178.355 307.816C180.308 309.768 182.867 310.745 185.426 310.745C187.985 310.745 190.545 309.768 192.497 307.816L254.316 245.892C256.392 243.815 259.152 242.672 262.089 242.672C265.026 242.672 267.786 243.816 269.862 245.892C274.148 250.178 274.148 257.152 269.862 261.438L207.939 323.256C204.034 327.161 204.033 333.493 207.939 337.399C211.845 341.303 218.177 341.304 222.081 337.399L270.175 289.411C274.486 285.97 280.804 286.241 284.794 290.233C289.08 294.518 289.08 301.493 284.794 305.778L217.279 373.295C212.523 378.05 212.083 385.342 216.234 390.634C220.384 395.926 227.572 397.237 233.324 393.75L253.721 381.385C258.863 378.266 265.593 379.683 269.042 384.61C270.823 387.153 271.489 390.233 270.919 393.285C270.349 396.335 268.616 398.967 266.039 400.695L218.85 432.339C203.495 442.636 185.614 448.075 167.128 448.075C167.085 448.075 167.04 448.075 166.997 448.075L134.946 448.029C134.941 448.029 134.937 448.029 134.932 448.029C132.28 448.029 129.736 449.083 127.861 450.958L83.8937 494.925C79.9887 498.83 79.9887 505.162 83.8937 509.068C85.8467 511.02 88.4057 511.997 90.9647 511.997C93.5237 511.997 96.0837 511.02 98.0358 509.068L139.068 468.036L166.969 468.076C167.022 468.076 167.073 468.076 167.127 468.076C189.592 468.076 211.328 461.464 229.988 448.951L240.093 442.175C260.742 452.139 283.716 457.408 306.639 457.408C306.71 457.408 306.785 457.408 306.857 457.408L331.521 457.373L382.297 508.149C384.25 510.101 386.809 511.078 389.368 511.078C391.927 511.078 394.487 510.101 396.439 508.149C400.344 504.244 400.344 497.912 396.439 494.006ZM104.355 249.027C104.354 249.028 104.354 249.028 104.353 249.029L83.7467 269.635L79.6237 265.512C72.1377 258.025 72.1377 245.844 79.6237 238.358C86.6367 231.345 97.7688 230.903 105.302 237.028L110.828 242.554L104.355 249.027Z" fill="#D6A577"/>
<path d="M509.07 381.382C507.21 379.512 504.63 378.452 502 378.452C499.37 378.452 496.79 379.512 494.93 381.382C493.07 383.242 492 385.812 492 388.452C492 391.082 493.07 393.662 494.93 395.521C496.79 397.381 499.37 398.452 502 398.452C504.63 398.452 507.21 397.382 509.07 395.521C510.93 393.651 512 391.082 512 388.452C512 385.811 510.93 383.242 509.07 381.382Z" fill="#D6A577"/>
<path d="M482.18 354.488L458.294 330.602L458.352 290.17C458.395 259.622 449.426 230.065 432.412 204.693L388.397 139.055C382.385 130.089 373.23 124.06 362.619 122.078C352.007 120.096 341.294 122.415 332.452 128.607C317.964 138.752 312.203 157.056 317.326 173.282L291.191 147.146C287.286 143.242 280.954 143.242 277.048 147.146C273.143 151.051 273.143 157.383 277.048 161.289L333.192 217.433C338.386 222.627 346.353 223.108 352.133 218.573C357.913 214.039 359.345 206.188 355.536 199.905L338.336 171.533C332.936 162.625 335.39 150.966 343.923 144.991C348.327 141.908 353.666 140.753 358.947 141.74C364.232 142.727 368.791 145.73 371.785 150.195L415.8 215.833C430.591 237.891 438.389 263.586 438.351 290.142L438.288 334.724C438.284 337.381 439.338 339.931 441.217 341.81L468.038 368.631C469.991 370.583 472.55 371.56 475.109 371.56C477.668 371.56 480.228 370.583 482.18 368.631C486.085 364.726 486.085 358.394 482.18 354.488Z" fill="#D6A577"/>
<path d="M267.68 123.642C265.83 121.782 263.25 120.712 260.62 120.712C257.98 120.712 255.41 121.782 253.54 123.642C251.68 125.502 250.61 128.082 250.61 130.712C250.61 133.352 251.68 135.922 253.54 137.782C255.41 139.642 257.98 140.712 260.62 140.712C263.25 140.712 265.82 139.642 267.68 137.782C269.55 135.922 270.62 133.342 270.62 130.712C270.62 128.082 269.55 125.502 267.68 123.642Z" fill="#D6A577"/>
<path d="M360.485 278.824C364.39 274.919 364.39 268.587 360.485 264.681C356.58 260.777 350.248 260.777 346.342 264.681L341.98 269.043C323.306 287.718 323.306 318.104 341.98 336.778C343.933 338.73 346.492 339.707 349.051 339.707C351.61 339.707 354.17 338.73 356.122 336.778C360.027 332.873 360.028 326.541 356.122 322.635C345.246 311.759 345.246 294.061 356.122 283.185L360.485 278.824Z" fill="#D6A577"/>
<path d="M477.299 54.002C470.942 54.002 464.728 55.806 459.355 59.105C453.982 55.806 447.768 54.002 441.411 54.002C422.277 54.002 406.71 69.854 406.71 89.337C406.71 100.379 414.649 113.64 430.981 129.88C441.977 140.814 452.824 149.136 453.281 149.485C455.073 150.856 457.214 151.541 459.355 151.541C461.496 151.541 463.636 150.856 465.429 149.485C465.886 149.136 476.733 140.813 487.729 129.88C504.061 113.641 512 100.379 512 89.337C512 69.853 496.433 54.002 477.299 54.002ZM459.352 128.748C442.64 114.868 426.71 97.158 426.71 89.337C426.71 80.881 433.305 74.002 441.411 74.002C445.443 74.002 449.205 75.673 452.005 78.709C453.899 80.761 456.563 81.928 459.355 81.928C462.147 81.928 464.812 80.761 466.705 78.709C469.505 75.674 473.267 74.002 477.299 74.002C485.405 74.002 492 80.881 492 89.337C492 97.138 476.065 114.853 459.352 128.748Z" fill="#D6A577"/>
<path d="M70.589 0.00292973C64.232 0.00292973 58.018 1.80693 52.645 5.10593C47.272 1.80693 41.058 0.00292973 34.701 0.00292973C15.567 0.00192973 0 15.8529 0 35.3369C0 46.3789 7.939 59.6399 24.271 75.8799C35.267 86.8139 46.115 95.1369 46.571 95.4859C48.363 96.8569 50.504 97.5419 52.645 97.5419C54.786 97.5419 56.926 96.8569 58.719 95.4859C59.176 95.1369 70.023 86.8139 81.019 75.8809C97.351 59.6409 105.29 46.3799 105.29 35.3379C105.29 15.8539 89.723 0.00292973 70.589 0.00292973ZM52.642 74.7479C35.929 60.8679 20 43.1589 20 35.3369C20 26.8809 26.595 20.0019 34.701 20.0019C38.733 20.0019 42.495 21.6729 45.295 24.7089C47.189 26.7609 49.853 27.9279 52.645 27.9279C55.437 27.9279 58.102 26.7609 59.995 24.7089C62.795 21.6739 66.557 20.0019 70.589 20.0019C78.695 20.0019 85.29 26.8809 85.29 35.3369C85.29 43.1369 69.355 60.8529 52.642 74.7479Z" fill="#D6A577"/>
</svg>
