<svg width="504" height="468" viewBox="0 0 504 468" fill="none" xmlns="http://www.w3.org/2000/svg">
<path d="M156.786 236.323C157.061 225.144 150.604 214.891 140.403 210.31C130.202 205.73 118.249 207.716 110.077 215.349L63.3682 259.453C52.2261 269.962 51.7134 287.514 62.223 298.657C72.7326 309.799 90.2848 310.311 101.427 299.802L148.136 255.698C153.489 250.653 156.604 243.677 156.786 236.323Z" fill="#D6A577"/>
<path d="M369.598 0.596122C333.029 -0.525584 297.524 12.9928 270.962 38.1518C73.4285 224.681 264.503 44.2598 177.544 126.386C173.986 129.806 171.891 134.471 171.697 139.402C171.194 159.523 206.584 175.269 228.906 154.16L295.96 90.8698C301.157 85.9633 308.09 83.3223 315.234 83.5278C322.378 83.7333 329.148 86.7685 334.054 91.9657L466.555 232.397C546.229 146.911 489.226 4.0903 369.598 0.596122Z" fill="#D6A577"/>
<path d="M257.56 343.142C257.835 331.963 251.378 321.71 241.177 317.13C230.976 312.549 219.023 314.535 210.851 322.168L164.142 366.272C156.936 373.071 153.905 383.197 156.189 392.837C158.474 402.477 165.728 410.166 175.219 413.007C184.709 415.848 194.995 413.411 202.201 406.612L248.91 362.508C254.266 357.468 257.381 350.494 257.56 343.142Z" fill="#D6A577"/>
<path d="M459.953 251.548C459.054 250.91 461.848 253.596 320.976 104.299C319.34 102.566 317.082 101.555 314.7 101.488C312.318 101.42 310.007 102.302 308.275 103.939L241.221 167.212C230.655 177.212 216.542 182.595 202.001 182.17C187.459 181.745 173.684 175.548 163.72 164.948C157.058 157.919 153.466 148.527 153.737 138.846C154.009 129.165 158.121 119.989 165.166 113.344L238.733 43.8736C205.021 7.70286 154.521 -7.64579 106.383 3.64807C58.2451 14.9419 19.8409 51.1488 5.73362 98.5386C-8.37364 145.928 3.97643 197.244 38.1006 233.026L50.8377 246.5C51.6281 245.602 50.9185 246.401 97.6902 202.252C112.042 188.716 133.468 185.938 150.797 195.367C168.126 204.796 177.432 224.295 173.861 243.697C188.277 241.79 202.731 246.925 212.712 257.499C222.694 268.073 226.987 282.799 224.253 297.08C238.675 295.189 253.128 300.337 263.107 310.919C273.086 321.501 277.378 336.231 274.645 350.517C288.696 348.644 302.811 353.476 312.768 363.566C322.724 373.657 327.366 387.835 325.306 401.86C337.205 408.777 352.379 405.904 360.927 395.117C369.475 384.329 368.803 368.901 359.349 358.897L239.667 232.092C237.464 229.757 236.674 226.425 237.594 223.35C238.514 220.274 241.005 217.924 244.129 217.183C247.252 216.443 250.533 217.424 252.736 219.759L372.419 346.6C379.22 353.805 389.349 356.833 398.989 354.545C408.629 352.257 416.316 345 419.155 335.507C421.993 326.014 419.552 315.728 412.75 308.524L293.059 181.691C289.728 178.072 289.928 172.448 293.506 169.074C297.084 165.7 302.711 165.83 306.128 169.368L425.828 296.2C433.543 304.351 445.407 307.054 455.891 303.049C466.375 299.045 473.416 289.121 473.732 277.903C473.318 267.497 468.261 257.826 459.953 251.548Z" fill="#D6A577"/>
<path d="M281.04 368.024C273.687 367.789 266.545 370.506 261.207 375.569L214.498 419.682C207.292 426.482 204.261 436.61 206.547 446.25C208.833 455.891 216.089 463.58 225.581 466.421C235.073 469.261 245.36 466.822 252.566 460.022L299.274 415.918C307.394 408.204 310.086 396.368 306.101 385.901C302.116 375.434 292.234 368.385 281.04 368.024Z" fill="#D6A577"/>
<path d="M207.168 289.732C207.444 278.554 200.986 268.301 190.785 263.72C180.584 259.14 168.631 261.125 160.46 268.758L113.751 312.862C102.802 323.413 102.388 340.811 112.822 351.87C123.256 362.93 140.649 363.528 151.818 353.211L198.527 309.099C203.876 304.055 206.987 297.082 207.168 289.732Z" fill="#D6A577"/>
</svg>
