<svg width="512" height="512" viewBox="0 0 512 512" fill="none" xmlns="http://www.w3.org/2000/svg">
<g clip-path="url(#clip0)">
<path d="M330.473 71.0391C270.848 71.0391 222.336 118.254 222.336 176.289V176.465C222.336 181.191 224.566 185.645 228.352 188.477C232.137 191.309 237.035 192.188 241.57 190.855C250.301 188.289 260.289 189.195 268.293 193.281C280.215 199.375 287.668 212.094 286.836 224.93C286.008 237.629 277.113 249.324 264.699 254.027C256.953 256.965 253.055 265.625 255.988 273.371C258.262 279.367 263.965 283.059 270.02 283.059C271.785 283.059 273.582 282.742 275.332 282.082C298.543 273.285 315.195 251.102 316.77 226.875C318.371 202.262 304.371 178.027 281.938 166.566C273.398 162.203 263.902 159.809 254.309 159.449C262.27 126.039 293.398 101.039 330.473 101.039C373.559 101.039 408.609 134.797 408.609 176.289C408.609 184.574 415.328 191.289 423.609 191.289C431.895 191.289 438.613 184.574 438.613 176.289C438.613 118.254 390.102 71.0391 330.473 71.0391Z" fill="#D6A577"/>
<path d="M458.52 51.0975C424.707 18.4569 379.668 0.312343 331.699 0.00374897C291.442 -0.246251 253.305 12.0116 221.293 35.4725C190.242 58.2303 167.16 90.6366 156.297 126.722C148.617 152.242 151.77 180.062 165.414 207.176C194.203 264.371 202.336 316.965 193.481 388.711C188.703 427.433 197.867 459.332 219.985 480.965C240.36 500.89 268.012 512 296.731 512C298.985 512 301.246 511.933 303.508 511.793C330.246 510.164 355.324 498.89 374.117 480.051C393.016 461.109 403.875 436.234 404.695 410.008C404.961 401.476 404.172 392.957 402.352 384.687C397.317 361.848 408.156 337.515 429.317 324.14C481.676 291.047 512.555 235.082 511.914 174.445C511.422 127.668 492.457 83.8631 458.52 51.0975ZM413.285 298.781C397.805 308.566 385.781 322.363 378.516 338.676C371.067 355.402 369.176 373.543 373.055 391.144C374.34 396.988 374.899 403.023 374.707 409.07C374.129 427.652 366.375 445.336 352.879 458.863C339.274 472.504 321.09 480.668 301.684 481.848C279.008 483.226 256.887 475.09 240.961 459.515C225.574 444.469 219.617 421.883 223.258 392.387C229.973 337.973 231.535 271.808 192.211 193.687C185.149 179.656 178.172 158.148 185.028 135.371C194.02 105.484 213.199 78.5975 239.028 59.6717C265.805 40.0467 297.789 29.8358 331.508 30.0037C371.735 30.2616 409.442 45.4178 437.684 72.6795C465.801 99.8241 481.512 136.078 481.918 174.762C482.445 224.922 456.789 271.285 413.285 298.781Z" fill="#D6A577"/>
<path d="M113.957 207.82C108.012 202.059 98.5121 202.207 92.7504 208.156C86.9848 214.105 87.1332 223.601 93.0824 229.367C116.211 251.777 128.946 281.59 128.946 313.312C128.946 345.039 116.211 374.851 93.0824 397.262C87.1332 403.027 86.9848 412.523 92.7504 418.473C95.6918 421.508 99.6059 423.035 103.524 423.035C107.282 423.035 111.047 421.629 113.961 418.805C142.969 390.695 158.946 353.23 158.946 313.312C158.946 273.394 142.969 235.93 113.957 207.82Z" fill="#D6A577"/>
<path d="M4.42537 281.66C-1.44963 287.496 -1.48088 296.996 4.35896 302.871C9.11678 307.66 9.11678 315.453 4.35896 320.242C-1.48088 326.117 -1.44963 335.613 4.42537 341.453C7.35115 344.363 11.1754 345.813 14.9996 345.813C18.8551 345.813 22.7105 344.336 25.6402 341.387C41.984 324.938 41.984 298.176 25.6402 281.727C19.8004 275.852 10.3043 275.82 4.42537 281.66Z" fill="#D6A577"/>
<path d="M70.1215 250.301C64.1684 244.535 54.6723 244.687 48.9105 250.637C43.1449 256.586 43.2934 266.082 49.2426 271.848C60.7035 282.949 67.0121 297.676 67.0121 313.312C67.0121 328.953 60.7035 343.68 49.2426 354.781C43.2934 360.547 43.1449 370.043 48.9105 375.992C51.8519 379.027 55.7621 380.555 59.684 380.555C63.4418 380.555 67.2074 379.148 70.1215 376.328C87.4613 359.523 97.0121 337.144 97.0121 313.312C97.0121 289.484 87.4613 267.105 70.1215 250.301Z" fill="#D6A577"/>
</g>
<defs>
<clipPath id="clip0">
<rect width="512" height="512" fill="white"/>
</clipPath>
</defs>
</svg>
