<svg width="100" height="100" viewBox="0 0 100 100" fill="none" xmlns="http://www.w3.org/2000/svg">
<path d="M35.9394 24.9394V11.7576L22.7576 24.9394H35.9394Z" fill="#D6A577"/>
<path d="M76.6229 10H40.5282V27.0266C40.5282 28.33 39.4634 29.3865 38.1506 29.3865H21V86.7309C21 88.0343 22.0642 89.0909 23.3771 89.0909H76.6229C77.9357 89.0909 79 88.0343 79 86.7309V12.36C79 11.0566 77.9357 10 76.6229 10V10ZM56.1624 44.8014C57.0904 43.88 58.5959 43.88 59.524 44.8014L60.601 45.8706L63.8126 42.6822C64.7413 41.7608 66.2462 41.7608 67.1749 42.6822C68.103 43.6042 68.103 45.0983 67.1749 46.0203L62.2822 50.8772C61.8184 51.3382 61.21 51.5687 60.6016 51.5687C59.9932 51.5687 59.3848 51.3382 58.9205 50.8778L56.1624 48.1395C55.2343 47.2175 55.2343 45.7234 56.1624 44.8014V44.8014ZM56.1624 33.5338C57.0904 32.6118 58.5959 32.6118 59.524 33.5338L60.601 34.6031L63.8126 31.4146C64.7413 30.4926 66.2462 30.4926 67.1749 31.4146C68.103 32.336 68.103 33.8307 67.1749 34.7521L62.2822 39.6096C61.8178 40.07 61.2094 40.3005 60.6016 40.3005C59.9932 40.3005 59.3848 40.0706 58.9205 39.6096L56.1624 36.8713C55.2343 35.9493 55.2343 34.4552 56.1624 33.5338V33.5338ZM56.1624 56.0696C57.0904 55.1476 58.5959 55.1476 59.524 56.0696L60.601 57.1388L63.8126 53.9504C64.7413 53.0284 66.2462 53.0284 67.1749 53.9504C68.103 54.8718 68.103 56.3665 67.1749 57.2879L62.2822 62.1454C61.8178 62.6058 61.2094 62.8363 60.6016 62.8363C59.9932 62.8363 59.3848 62.6064 58.9205 62.1454L56.1624 59.4071C55.2343 58.4856 55.2343 56.991 56.1624 56.0696V56.0696ZM67.1749 68.5561L62.2822 73.4129C61.8184 73.874 61.21 74.1045 60.6016 74.1045C59.9932 74.1045 59.3848 73.874 58.9205 73.4129L56.1624 70.6752C55.2343 69.7532 55.2343 68.2592 56.1624 67.3372C57.0911 66.4157 58.5959 66.4157 59.5246 67.3372L60.6016 68.4064L63.8132 65.218C64.7413 64.2965 66.2468 64.2965 67.1749 65.218C68.1036 66.14 68.1036 67.634 67.1749 68.5561ZM34.5063 35.5806H49.0397C50.3525 35.5806 51.4174 36.6372 51.4174 37.9406C51.4174 39.2439 50.3525 40.3005 49.0397 40.3005H34.5063C33.1928 40.3005 32.1286 39.2439 32.1286 37.9406C32.1286 36.6372 33.1928 35.5806 34.5063 35.5806ZM34.5063 46.8482H49.0397C50.3525 46.8482 51.4174 47.9048 51.4174 49.2081C51.4174 50.5121 50.3525 51.5687 49.0397 51.5687H34.5063C33.1928 51.5687 32.1286 50.5121 32.1286 49.2081C32.1286 47.9048 33.1928 46.8482 34.5063 46.8482ZM34.5063 58.1164H49.0397C50.3525 58.1164 51.4174 59.1729 51.4174 60.4763C51.4174 61.7797 50.3525 62.8363 49.0397 62.8363H34.5063C33.1928 62.8363 32.1286 61.7797 32.1286 60.4763C32.1286 59.1729 33.1928 58.1164 34.5063 58.1164ZM34.5063 69.3839H49.0397C50.3525 69.3839 51.4174 70.4411 51.4174 71.7445C51.4174 73.0479 50.3525 74.1045 49.0397 74.1045H34.5063C33.1928 74.1045 32.1286 73.0479 32.1286 71.7445C32.1286 70.4411 33.1928 69.3839 34.5063 69.3839Z" fill="#D6A577"/>
</svg>
