<svg width="94" height="93" viewBox="0 0 94 93" fill="none" xmlns="http://www.w3.org/2000/svg">
<path d="M75.7954 72.1153L64.9102 61.1626C61.0227 57.2509 54.4138 58.8158 52.8588 63.9008C51.6925 67.4214 47.805 69.3773 44.3062 68.5948C36.531 66.6389 26.0346 56.4686 24.0908 48.2541C22.9246 44.7334 25.2571 40.8218 28.7559 39.6484C33.8098 38.0838 35.3648 31.4339 31.4772 27.5223L20.592 16.5696C17.482 13.8314 12.8169 13.8314 10.0956 16.5696L2.70927 24.0018C-4.6771 31.8251 3.48678 52.5569 21.7583 70.9418C40.0299 89.3266 60.6339 97.9324 68.409 90.1089L75.7954 82.6768C78.5168 79.5474 78.5168 74.8534 75.7954 72.1153Z" fill="black"/>
<path d="M84.19 0H55.9747C50.5654 0 46.1648 4.42139 46.1648 9.85628V25.0792C46.1648 29.4159 48.9986 33.1931 53.1051 34.402L57.8429 39.1626C58.1061 39.4266 58.4623 39.5751 58.8341 39.5751C59.2057 39.5751 59.5622 39.4266 59.825 39.1626L64.1712 34.7954H84.19C89.5994 34.7954 94 30.3741 94 24.9392V9.85628C94 4.42139 89.5994 0 84.19 0ZM59.7827 19.8864C59.7827 19.1086 60.41 18.4783 61.1841 18.4783H78.9807C79.7548 18.4783 80.3821 19.1086 80.3821 19.8864C80.3821 20.6641 79.7548 21.2944 78.9807 21.2944H61.1841C60.41 21.2944 59.7827 20.6641 59.7827 19.8864ZM78.9807 16.3171H61.1841C60.41 16.3171 59.7827 15.6868 59.7827 14.9091C59.7827 14.1317 60.41 13.501 61.1841 13.501H78.9807C79.7548 13.501 80.3821 14.1317 80.3821 14.9091C80.3821 15.6868 79.7548 16.3171 78.9807 16.3171Z" fill="black"/>
</svg>
