<svg width="12" height="20" viewBox="0 0 12 20" fill="none" xmlns="http://www.w3.org/2000/svg">
<path d="M10.9991 0.00416134L8.40558 0C5.49185 0 3.60886 1.9319 3.60886 4.92203V7.19141H1.00119C0.775857 7.19141 0.593384 7.37409 0.593384 7.59943V10.8875C0.593384 11.1128 0.776065 11.2953 1.00119 11.2953H3.60886V19.5922C3.60886 19.8175 3.79134 20 4.01667 20H7.41894C7.64428 20 7.82675 19.8173 7.82675 19.5922V11.2953H10.8757C11.1011 11.2953 11.2835 11.1128 11.2835 10.8875L11.2848 7.59943C11.2848 7.49123 11.2417 7.38762 11.1654 7.31105C11.089 7.23448 10.985 7.19141 10.8768 7.19141H7.82675V5.26763C7.82675 4.34298 8.04709 3.87358 9.25157 3.87358L10.9987 3.87295C11.2238 3.87295 11.4063 3.69027 11.4063 3.46514V0.411972C11.4063 0.187052 11.224 0.00457747 10.9991 0.00416134Z" fill="#2C2C2C"/>
</svg>
