<svg width="480" height="480" viewBox="0 0 480 480" fill="none" xmlns="http://www.w3.org/2000/svg">
<path d="M456 216H455.68C452.646 127.308 395.425 49.596 311.632 20.368C309.844 8.686 299.818 0.045 288 0H192C180.182 0.045 170.156 8.686 168.368 20.368C84.575 49.596 27.354 127.308 24.32 216H24C10.745 216 0 226.745 0 240V256C0 269.255 10.745 280 24 280H456C469.255 280 480 269.255 480 256V240C480 226.745 469.255 216 456 216ZM168 37.528V176C168 180.418 171.582 184 176 184C180.418 184 184 180.418 184 176V24C184 19.582 187.582 16 192 16H232V192C232 196.418 235.582 200 240 200C244.418 200 248 196.418 248 192V16H288C292.418 16 296 19.582 296 24V176C296 180.418 299.582 184 304 184C308.418 184 312 180.418 312 176V37.528C386.472 66.066 436.719 136.302 439.68 216H40.32C43.281 136.302 93.528 66.066 168 37.528ZM464 256C464 260.418 460.418 264 456 264H24C19.582 264 16 260.418 16 256V240C16 235.582 19.582 232 24 232H456C460.418 232 464 235.582 464 240V256Z" fill="#D6A577"/>
<path d="M200 352H96C82.745 352 72 362.745 72 376V408C72 412.418 75.582 416 80 416C84.418 416 88 412.418 88 408V376C88 371.582 91.582 368 96 368H200C204.418 368 208 364.418 208 360C208 355.582 204.418 352 200 352Z" fill="#D6A577"/>
<path d="M472 352H439.2C435.373 333.389 419.001 320.024 400 320H80C57.92 320.026 40.026 337.92 40 360H8C3.582 360 0 363.582 0 368V432C0 436.418 3.582 440 8 440H42.4C49.489 463.695 71.267 479.947 96 480H144C180.608 479.896 214.495 460.655 233.344 429.272C235.64 425.596 240.482 424.478 244.158 426.774C245.17 427.406 246.024 428.26 246.656 429.272C265.505 460.655 299.392 479.896 336 480H384C411.813 479.967 435.387 459.527 439.36 432H472C476.418 432 480 428.418 480 424V360C480 355.582 476.418 352 472 352ZM40 424H16V400H40V424ZM40 384H16V376H40V384ZM424 424C423.974 446.08 406.08 463.974 384 464H336C305.017 463.909 276.337 447.624 260.384 421.064C253.571 409.797 238.914 406.187 227.648 413C224.347 414.996 221.58 417.763 219.584 421.064C203.637 447.614 174.971 463.898 144 464H96C73.92 463.974 56.026 446.08 56 424V360C56 346.745 66.745 336 80 336H400C413.255 336 424 346.745 424 360V424ZM464 416H440V392H464V416ZM464 376H440V368H464V376Z" fill="#D6A577"/>
<path d="M248 352H232C227.582 352 224 355.582 224 360C224 364.418 227.582 368 232 368H248C252.418 368 256 364.418 256 360C256 355.582 252.418 352 248 352Z" fill="#D6A577"/>
</svg>
