<svg width="102" height="90" viewBox="0 0 102 90" fill="none" xmlns="http://www.w3.org/2000/svg">
<path d="M69.1373 0.865723H32.1323L6.55167 13.6575L0 38.7166V54.2696H5.93377C9.20486 54.2696 12.0653 56.9323 12.0653 60.2034V83.9385H0V89.8722H101.27V83.9385H89.2043V60.2034C89.2043 56.9323 92.0648 54.2696 95.3359 54.2696H101.27V39.4352L94.718 13.6575L69.1373 0.865723ZM65.4692 26.8665L55.4356 6.79949H65.4692V26.8665ZM35.9982 6.79949H45.834L35.9982 26.3958V6.79949ZM30.0644 32.2769L14.1366 16.4972L30.0644 8.6085V32.2769ZM50.6348 10.4675L63.6353 36.4683H37.6343L50.6348 10.4675ZM71.403 8.63322L87.1635 16.5125L71.403 32.273V8.63322ZM6.76667 36.4683L10.717 21.4569L25.9628 36.4683H6.76667ZM29.8666 60.2034C29.8666 56.9323 32.5293 54.2696 35.8004 54.2696C39.0715 54.2696 41.7342 56.9323 41.7342 60.2034V83.9385H29.8666V60.2034ZM59.5355 83.9385V60.2034C59.5355 56.9323 62.1982 54.2696 65.4692 54.2696C68.7403 54.2696 71.403 56.9323 71.403 60.2034V83.9385H59.5355ZM75.5984 36.4683L90.5643 21.5024L94.503 36.4683H75.5984Z" fill="#D6A577"/>
</svg>
