<svg width="20" height="20" viewBox="0 0 20 20" fill="none" stroke="black" xmlns="http://www.w3.org/2000/svg">
<g clip-path="url(#clip0)">
<path d="M10.0032 4.86505C7.16741 4.86505 4.87158 7.16338 4.87158 9.99672C4.87158 12.8326 7.16991 15.1284 10.0032 15.1284C12.8391 15.1284 15.1349 12.8301 15.1349 9.99672C15.1349 7.16088 12.8366 4.86505 10.0032 4.86505ZM10.0032 13.3276C8.16241 13.3276 6.67242 11.8367 6.67242 9.99672C6.67242 8.15672 8.16325 6.66588 10.0032 6.66588C11.8432 6.66588 13.3341 8.15672 13.3341 9.99672C13.3349 11.8367 11.8441 13.3276 10.0032 13.3276Z" fill="white"/>
<path d="M14.1233 0.0634936C12.2833 -0.0223397 7.72578 -0.0181731 5.88411 0.0634936C4.26578 0.139327 2.83828 0.53016 1.68745 1.68099C-0.235888 3.60433 0.00994525 6.19599 0.00994525 9.99683C0.00994525 13.8868 -0.206721 16.4185 1.68745 18.3127C3.61828 20.2427 6.24745 19.9902 10.0033 19.9902C13.8566 19.9902 15.1866 19.9927 16.5491 19.4652C18.4016 18.746 19.7999 17.0902 19.9366 14.116C20.0233 12.2752 20.0183 7.71849 19.9366 5.87683C19.7716 2.36599 17.8874 0.236827 14.1233 0.0634936ZM17.0358 17.0402C15.7749 18.301 14.0258 18.1885 9.97911 18.1885C5.81245 18.1885 4.14161 18.2502 2.92245 17.0277C1.51828 15.6302 1.77245 13.386 1.77245 9.98349C1.77245 5.37933 1.29995 2.06349 5.92078 1.82683C6.98245 1.78933 7.29495 1.77683 9.96745 1.77683L10.0049 1.80183C14.4458 1.80183 17.9299 1.33683 18.1391 5.95683C18.1866 7.01099 18.1974 7.32766 18.1974 9.99599C18.1966 14.1143 18.2749 15.7952 17.0358 17.0402Z" fill="white"/>
<path d="M15.3381 5.86165C16.0004 5.86165 16.5372 5.32477 16.5372 4.66248C16.5372 4.0002 16.0004 3.46332 15.3381 3.46332C14.6758 3.46332 14.1389 4.0002 14.1389 4.66248C14.1389 5.32477 14.6758 5.86165 15.3381 5.86165Z" fill="white"/>
</g>
<defs>
<clipPath id="clip0">
<rect width="20" height="20" fill="white"/>
</clipPath>
</defs>
</svg>
