<svg width="20" height="20" viewBox="0 0 20 20" fill="none" xmlns="http://www.w3.org/2000/svg">
<g clip-path="url(#clip0)">
<path d="M10.0032 4.86504C7.16738 4.86504 4.87155 7.16337 4.87155 9.9967C4.87155 12.8325 7.16988 15.1284 10.0032 15.1284C12.8391 15.1284 15.1349 12.83 15.1349 9.9967C15.1349 7.16087 12.8366 4.86504 10.0032 4.86504V4.86504ZM10.0032 13.3275C8.16238 13.3275 6.67238 11.8367 6.67238 9.9967C6.67238 8.1567 8.16322 6.66587 10.0032 6.66587C11.8432 6.66587 13.334 8.1567 13.334 9.9967C13.3349 11.8367 11.8441 13.3275 10.0032 13.3275V13.3275Z" fill="#2F2F2F"/>
<path d="M14.1233 0.0634783C12.2833 -0.022355 7.72581 -0.0181883 5.88414 0.0634783C4.26581 0.139312 2.83831 0.530145 1.68748 1.68098C-0.235858 3.60431 0.00997576 6.19598 0.00997576 9.99681C0.00997576 13.8868 -0.206691 16.4185 1.68748 18.3126C3.61831 20.2426 6.24748 19.9901 10.0033 19.9901C13.8566 19.9901 15.1866 19.9926 16.5491 19.4651C18.4016 18.746 19.8 17.0901 19.9366 14.116C20.0233 12.2751 20.0183 7.71848 19.9366 5.87681C19.7716 2.36598 17.8875 0.236812 14.1233 0.0634783V0.0634783ZM17.0358 17.0401C15.775 18.301 14.0258 18.1885 9.97914 18.1885C5.81248 18.1885 4.14164 18.2501 2.92248 17.0276C1.51831 15.6301 1.77248 13.386 1.77248 9.98348C1.77248 5.37931 1.29998 2.06348 5.92081 1.82681C6.98248 1.78931 7.29498 1.77681 9.96748 1.77681L10.005 1.80181C14.4458 1.80181 17.93 1.33681 18.1391 5.95681C18.1866 7.01098 18.1975 7.32765 18.1975 9.99598C18.1966 14.1143 18.275 15.7951 17.0358 17.0401V17.0401Z" fill="#2F2F2F"/>
<path d="M15.3381 5.86164C16.0004 5.86164 16.5373 5.32475 16.5373 4.66247C16.5373 4.00019 16.0004 3.4633 15.3381 3.4633C14.6758 3.4633 14.139 4.00019 14.139 4.66247C14.139 5.32475 14.6758 5.86164 15.3381 5.86164Z" fill="#2F2F2F"/>
</g>
<defs>
<clipPath id="clip0">
<rect width="20" height="20" fill="white"/>
</clipPath>
</defs>
</svg>
