<svg width="512" height="512" viewBox="0 0 512 512" fill="none" xmlns="http://www.w3.org/2000/svg">
<path d="M476 43.0508H442.585V30.6338C442.585 29.0425 441.953 27.5164 440.828 26.3911C439.702 25.2659 438.176 24.6338 436.585 24.6338H255.453C253.862 24.6338 252.336 25.2659 251.21 26.3911C250.085 27.5164 249.453 29.0425 249.453 30.6338V43.0508H206.038C199.145 43.0579 192.536 45.7995 187.661 50.6739C182.787 55.5483 180.045 62.1574 180.038 69.0508V112.283C166.89 102.168 151.172 95.9387 134.664 94.2998C118.157 92.6608 101.521 95.678 86.6402 103.01C71.7598 110.341 59.2303 121.694 50.4715 135.782C41.7127 149.869 37.0747 166.128 37.083 182.717V209.61C33.6914 210.797 30.6525 212.818 28.2451 215.486C25.8377 218.154 24.1391 221.383 23.305 224.879C21.7531 231.224 22.5667 237.918 25.5936 243.707C28.6205 249.497 33.6532 253.984 39.75 256.331V262.069C39.7606 277.682 43.9593 293.006 51.9084 306.444C59.8575 319.882 71.2658 330.941 84.944 338.469V364.828L37.611 385.028C37.5 385.076 37.391 385.128 37.284 385.18C29.6838 389.011 23.1894 394.722 18.4177 401.77C13.646 408.817 10.7556 416.968 10.021 425.448C10.007 425.613 10 425.78 10 425.948V481.369C10 482.96 10.6321 484.486 11.7574 485.611C12.8826 486.737 14.4087 487.369 16 487.369H242.769C244.36 487.369 245.886 486.737 247.012 485.611C248.137 484.486 248.769 482.96 248.769 481.369V426.878H476C482.893 426.87 489.502 424.129 494.377 419.254C499.251 414.38 501.993 407.771 502 400.878V69.0488C501.992 62.1558 499.25 55.5474 494.376 50.6735C489.502 45.7996 482.893 43.0582 476 43.0508ZM261.453 36.6338H430.585V59.0188H261.453V36.6338ZM49.083 182.717C49.083 162.333 57.1803 142.785 71.5936 128.371C86.0069 113.958 105.556 105.861 125.939 105.861C146.322 105.861 165.871 113.958 180.284 128.371C194.698 142.785 202.795 162.333 202.795 182.717V210.033C187.927 211.64 142.54 214.065 106.095 189.899C131.137 186.561 161.663 178.873 184.303 161.51C184.946 161.037 185.489 160.441 185.899 159.756C186.309 159.071 186.578 158.311 186.691 157.521C186.803 156.73 186.757 155.926 186.555 155.153C186.352 154.381 185.998 153.657 185.512 153.024C185.026 152.39 184.419 151.86 183.726 151.464C183.033 151.068 182.267 150.815 181.475 150.718C180.683 150.622 179.879 150.685 179.111 150.903C178.343 151.121 177.626 151.49 177.003 151.989C135.816 183.578 62.237 180.246 61.503 180.207C59.9237 180.127 58.3766 180.673 57.1972 181.726C56.0178 182.78 55.3013 184.256 55.203 185.834L53.403 215.467L49.488 213.457C49.3869 213.405 49.2986 213.332 49.2294 213.242C49.1602 213.153 49.1119 213.049 49.088 212.938L49.083 182.717ZM51.75 262.069V251.788C51.7502 250.376 51.2525 249.009 50.3443 247.928C49.4362 246.847 48.1758 246.12 46.785 245.877C44.7869 245.522 42.8829 244.761 41.1905 243.641C39.498 242.521 38.0531 241.066 36.945 239.366C35.8368 237.666 35.089 235.756 34.7476 233.756C34.4062 231.755 34.4785 229.706 34.96 227.735C35.2821 226.311 35.9332 224.982 36.8612 223.855C37.7893 222.728 38.9683 221.834 40.304 221.245C41.3467 222.43 42.6015 223.409 44.004 224.133L53.804 229.164C54.9281 229.741 56.1775 230.033 57.4412 230.011C58.7049 229.99 59.9438 229.657 61.0479 229.042C62.152 228.427 63.0872 227.549 63.7703 226.486C64.4535 225.422 64.8635 224.207 64.964 222.947C64.964 222.909 64.97 222.872 64.972 222.834L66.829 192.349C71.729 192.395 79.307 192.315 88.519 191.673C137.524 233.361 206.876 221.721 209.842 221.2C210.464 221.085 211.063 220.873 211.618 220.571C213.399 220.938 215.037 221.807 216.339 223.077C217.64 224.347 218.55 225.963 218.961 227.735C219.443 229.706 219.516 231.755 219.175 233.756C218.834 235.757 218.086 237.666 216.978 239.366C215.87 241.067 214.425 242.522 212.732 243.641C211.04 244.761 209.135 245.522 207.137 245.877C205.746 246.12 204.486 246.847 203.578 247.928C202.67 249.009 202.172 250.376 202.172 251.788V262.069C202.099 281.968 194.144 301.027 180.047 315.072C165.951 329.117 146.863 337.004 126.964 337.004C107.064 337.004 87.9762 329.117 73.8798 315.072C59.7833 301.027 51.8276 281.968 51.755 262.069H51.75ZM180.041 331.209V367.478L173.825 364.826V335.584C175.963 334.216 178.035 332.757 180.041 331.209ZM161.825 342V363.542C141.04 372.077 117.729 372.077 96.944 363.542V343.954C118.016 351.677 141.256 350.977 161.825 342ZM236.769 475.371H22V426.2C22.5934 419.844 24.7839 413.742 28.368 408.461C31.9521 403.179 36.8134 398.889 42.5 395.99L92.464 374.666C116.125 384.366 142.654 384.366 166.315 374.666L216.28 395.991C221.965 398.891 226.824 403.181 230.406 408.463C233.988 413.744 236.177 419.846 236.769 426.2V475.371ZM490 400.88C489.997 404.592 488.52 408.151 485.896 410.775C483.271 413.4 479.712 414.876 476 414.88H246.652C244.659 408.497 241.404 402.579 237.081 397.477C232.758 392.375 227.455 388.193 221.485 385.18C221.378 385.125 221.269 385.08 221.158 385.028L192.041 372.6V320.052C206.306 304.109 214.184 283.462 214.167 262.069V256.331C220.264 253.985 225.296 249.497 228.323 243.708C231.35 237.92 232.164 231.226 230.612 224.881C229.694 221.032 227.732 217.51 224.941 214.705C222.15 211.9 218.639 209.919 214.795 208.981V182.717C214.813 160.81 206.705 139.675 192.041 123.4V69.0488C192.044 65.3368 193.521 61.7779 196.145 59.1531C198.77 56.5283 202.329 55.0522 206.041 55.0488H249.456V65.0168C249.456 66.6081 250.088 68.1342 251.213 69.2594C252.339 70.3846 253.865 71.0168 255.456 71.0168H436.585C438.176 71.0168 439.702 70.3846 440.828 69.2594C441.953 68.1342 442.585 66.6081 442.585 65.0168V55.0508H476C479.712 55.0542 483.271 56.5303 485.896 59.1551C488.52 61.7799 489.997 65.3388 490 69.0508V400.88Z" fill="#D6A577"/>
<path d="M446.584 221.686H402.718C401.126 221.686 399.6 222.318 398.475 223.443C397.35 224.569 396.718 226.095 396.718 227.686C396.718 229.277 397.35 230.803 398.475 231.929C399.6 233.054 401.126 233.686 402.718 233.686H446.584C448.175 233.686 449.701 233.054 450.826 231.929C451.952 230.803 452.584 229.277 452.584 227.686C452.584 226.095 451.952 224.569 450.826 223.443C449.701 222.318 448.175 221.686 446.584 221.686Z" fill="#D6A577"/>
<path d="M362.157 233.686H376.872C378.464 233.686 379.99 233.054 381.115 231.929C382.24 230.803 382.872 229.277 382.872 227.686C382.872 226.095 382.24 224.569 381.115 223.443C379.99 222.318 378.464 221.686 376.872 221.686H362.157C360.566 221.686 359.04 222.318 357.915 223.443C356.789 224.569 356.157 226.095 356.157 227.686C356.157 229.277 356.789 230.803 357.915 231.929C359.04 233.054 360.566 233.686 362.157 233.686Z" fill="#D6A577"/>
<path d="M446.584 286.582H431.689C430.098 286.582 428.572 287.214 427.447 288.339C426.322 289.465 425.689 290.991 425.689 292.582C425.689 294.173 426.322 295.699 427.447 296.825C428.572 297.95 430.098 298.582 431.689 298.582H446.584C448.176 298.582 449.702 297.95 450.827 296.825C451.952 295.699 452.584 294.173 452.584 292.582C452.584 290.991 451.952 289.465 450.827 288.339C449.702 287.214 448.176 286.582 446.584 286.582Z" fill="#D6A577"/>
<path d="M410.937 298.582C412.528 298.582 414.054 297.95 415.179 296.825C416.304 295.699 416.937 294.173 416.937 292.582C416.937 290.991 416.304 289.465 415.179 288.339C414.054 287.214 412.528 286.582 410.937 286.582H331.478C329.886 286.582 328.36 287.214 327.235 288.339C326.11 289.465 325.478 290.991 325.478 292.582C325.478 294.173 326.11 295.699 327.235 296.825C328.36 297.95 329.886 298.582 331.478 298.582H410.937Z" fill="#D6A577"/>
<path d="M310.437 286.582H305.076C303.485 286.582 301.959 287.214 300.834 288.339C299.708 289.465 299.076 290.991 299.076 292.582C299.076 294.173 299.708 295.699 300.834 296.825C301.959 297.95 303.485 298.582 305.076 298.582H310.437C312.028 298.582 313.555 297.95 314.68 296.825C315.805 295.699 316.437 294.173 316.437 292.582C316.437 290.991 315.805 289.465 314.68 288.339C313.555 287.214 312.028 286.582 310.437 286.582Z" fill="#D6A577"/>
<path d="M245.212 286.582C243.621 286.582 242.094 287.214 240.969 288.339C239.844 289.465 239.212 290.991 239.212 292.582C239.212 294.173 239.844 295.699 240.969 296.825C242.094 297.95 243.621 298.582 245.212 298.582H279.23C280.821 298.582 282.347 297.95 283.473 296.825C284.598 295.699 285.23 294.173 285.23 292.582C285.23 290.991 284.598 289.465 283.473 288.339C282.347 287.214 280.821 286.582 279.23 286.582H245.212Z" fill="#D6A577"/>
<path d="M446.584 346.563H412.249C410.658 346.563 409.132 347.195 408.006 348.32C406.881 349.446 406.249 350.972 406.249 352.563C406.249 354.154 406.881 355.68 408.006 356.806C409.132 357.931 410.658 358.563 412.249 358.563H446.584C448.175 358.563 449.701 357.931 450.827 356.806C451.952 355.68 452.584 354.154 452.584 352.563C452.584 350.972 451.952 349.446 450.827 348.32C449.701 347.195 448.175 346.563 446.584 346.563Z" fill="#D6A577"/>
<path d="M390.714 346.563H386.4C384.809 346.563 383.283 347.195 382.158 348.32C381.033 349.446 380.4 350.972 380.4 352.563C380.4 354.154 381.033 355.68 382.158 356.806C383.283 357.931 384.809 358.563 386.4 358.563H390.711C392.303 358.563 393.829 357.931 394.954 356.806C396.079 355.68 396.711 354.154 396.711 352.563C396.711 350.972 396.079 349.446 394.954 348.32C393.829 347.195 392.303 346.563 390.711 346.563H390.714Z" fill="#D6A577"/>
<path d="M369.514 346.563H336.9C335.309 346.563 333.783 347.195 332.658 348.32C331.533 349.446 330.9 350.972 330.9 352.563C330.9 354.154 331.533 355.68 332.658 356.806C333.783 357.931 335.309 358.563 336.9 358.563H369.515C371.107 358.563 372.633 357.931 373.758 356.806C374.883 355.68 375.515 354.154 375.515 352.563C375.515 350.972 374.883 349.446 373.758 348.32C372.633 347.195 371.107 346.563 369.515 346.563H369.514Z" fill="#D6A577"/>
<path d="M310.437 346.563H245.212C243.621 346.563 242.094 347.195 240.969 348.32C239.844 349.446 239.212 350.972 239.212 352.563C239.212 354.154 239.844 355.68 240.969 356.806C242.094 357.931 243.621 358.563 245.212 358.563H310.437C312.028 358.563 313.554 357.931 314.68 356.806C315.805 355.68 316.437 354.154 316.437 352.563C316.437 350.972 315.805 349.446 314.68 348.32C313.554 347.195 312.028 346.563 310.437 346.563Z" fill="#D6A577"/>
<path d="M446.584 170.6H442.712C441.121 170.6 439.594 171.232 438.469 172.357C437.344 173.483 436.712 175.009 436.712 176.6C436.712 178.191 437.344 179.718 438.469 180.843C439.594 181.968 441.121 182.6 442.712 182.6H446.584C448.175 182.6 449.701 181.968 450.827 180.843C451.952 179.718 452.584 178.191 452.584 176.6C452.584 175.009 451.952 173.483 450.827 172.357C449.701 171.232 448.175 170.6 446.584 170.6Z" fill="#D6A577"/>
<path d="M374.339 182.6H416.867C418.458 182.6 419.984 181.968 421.11 180.843C422.235 179.718 422.867 178.191 422.867 176.6C422.867 175.009 422.235 173.483 421.11 172.357C419.984 171.232 418.458 170.6 416.867 170.6H374.339C372.748 170.6 371.221 171.232 370.096 172.357C368.971 173.483 368.339 175.009 368.339 176.6C368.339 178.191 368.971 179.718 370.096 180.843C371.221 181.968 372.748 182.6 374.339 182.6Z" fill="#D6A577"/>
<path d="M446.584 120.6H403.717C402.125 120.6 400.599 121.232 399.474 122.357C398.349 123.483 397.717 125.009 397.717 126.6C397.717 128.191 398.349 129.718 399.474 130.843C400.599 131.968 402.125 132.6 403.717 132.6H446.584C448.175 132.6 449.701 131.968 450.826 130.843C451.952 129.718 452.584 128.191 452.584 126.6C452.584 125.009 451.952 123.483 450.826 122.357C449.701 121.232 448.175 120.6 446.584 120.6Z" fill="#D6A577"/>
<path d="M374.339 132.6H377.872C379.463 132.6 380.989 131.968 382.115 130.843C383.24 129.718 383.872 128.191 383.872 126.6C383.872 125.009 383.24 123.483 382.115 122.357C380.989 121.232 379.463 120.6 377.872 120.6H374.339C372.748 120.6 371.221 121.232 370.096 122.357C368.971 123.483 368.339 125.009 368.339 126.6C368.339 128.191 368.971 129.718 370.096 130.843C371.221 131.968 372.748 132.6 374.339 132.6Z" fill="#D6A577"/>
<path d="M287.875 237.92C300.929 237.92 313.689 234.049 324.543 226.797C335.396 219.545 343.856 209.237 348.851 197.177C353.846 185.117 355.153 171.847 352.607 159.044C350.06 146.241 343.774 134.481 334.544 125.251C325.314 116.021 313.554 109.735 300.751 107.188C287.948 104.641 274.678 105.949 262.618 110.944C250.558 115.939 240.25 124.399 232.998 135.252C225.746 146.106 221.875 158.866 221.875 171.92C221.895 189.418 228.855 206.194 241.228 218.567C253.601 230.94 270.377 237.9 287.875 237.92ZM287.875 117.92C298.555 117.92 308.996 121.087 317.876 127.021C326.756 132.954 333.677 141.388 337.764 151.255C341.852 161.122 342.921 171.98 340.837 182.455C338.754 192.93 333.611 202.552 326.059 210.104C318.507 217.656 308.885 222.799 298.41 224.882C287.935 226.966 277.077 225.897 267.21 221.809C257.343 217.722 248.909 210.801 242.976 201.921C237.042 193.04 233.875 182.6 233.875 171.92C233.891 157.603 239.586 143.878 249.709 133.754C259.833 123.631 273.558 117.936 287.875 117.92Z" fill="#D6A577"/>
<path d="M270.268 198.079C271.393 199.204 272.919 199.836 274.51 199.836C276.101 199.836 277.627 199.204 278.753 198.079L322.585 154.247C323.695 153.119 324.314 151.597 324.308 150.015C324.301 148.432 323.67 146.916 322.55 145.796C321.431 144.677 319.915 144.046 318.332 144.039C316.749 144.033 315.228 144.652 314.1 145.762L274.511 185.351L261.649 172.49C261.094 171.92 260.432 171.467 259.701 171.155C258.97 170.843 258.184 170.68 257.39 170.675C256.595 170.669 255.807 170.822 255.072 171.123C254.336 171.425 253.668 171.87 253.106 172.432C252.544 172.994 252.099 173.662 251.798 174.397C251.496 175.132 251.343 175.92 251.349 176.715C251.354 177.51 251.517 178.295 251.829 179.027C252.14 179.758 252.594 180.42 253.164 180.974L270.268 198.079Z" fill="#D6A577"/>
</svg>
