<svg width="20" height="20" viewBox="0 0 20 20" fill="none" xmlns="http://www.w3.org/2000/svg">
<g clip-path="url(#clip0)">
<path d="M4.65597 6.43408H0.64094C0.462746 6.43408 0.318359 6.57853 0.318359 6.75666V19.6552C0.318359 19.8334 0.462746 19.9778 0.64094 19.9778H4.65597C4.83417 19.9778 4.97855 19.8334 4.97855 19.6552V6.75666C4.97855 6.57853 4.83417 6.43408 4.65597 6.43408Z" fill="white"/>
<path d="M2.64942 0.0219727C1.18852 0.0219727 0 1.2092 0 2.66849C0 4.12842 1.18852 5.3161 2.64942 5.3161C4.10916 5.3161 5.29671 4.12836 5.29671 2.66849C5.29677 1.2092 4.10916 0.0219727 2.64942 0.0219727Z" fill="white"/>
<path d="M14.8675 6.11377C13.255 6.11377 12.0629 6.807 11.3399 7.59467V6.75693C11.3399 6.5788 11.1955 6.43435 11.0173 6.43435H7.17219C6.994 6.43435 6.84961 6.5788 6.84961 6.75693V19.6555C6.84961 19.8337 6.994 19.9781 7.17219 19.9781H11.1784C11.3566 19.9781 11.501 19.8337 11.501 19.6555V13.2737C11.501 11.1232 12.0852 10.2854 13.5843 10.2854C15.2169 10.2854 15.3466 11.6285 15.3466 13.3844V19.6556C15.3466 19.8338 15.491 19.9782 15.6692 19.9782H19.677C19.8552 19.9782 19.9996 19.8338 19.9996 19.6556V12.5805C19.9996 9.38274 19.3898 6.11377 14.8675 6.11377Z" fill="white"/>
</g>
<defs>
<clipPath id="clip0">
<rect width="20" height="20" fill="white"/>
</clipPath>
</defs>
</svg>
