<svg width="20" height="20" viewBox="0 0 20 20" fill="none" xmlns="http://www.w3.org/2000/svg">
<g clip-path="url(#clip0)">
<path d="M4.65567 6.43427H0.640635C0.462441 6.43427 0.318054 6.57872 0.318054 6.75685V19.6554C0.318054 19.8336 0.462441 19.978 0.640635 19.978H4.65567C4.83386 19.978 4.97825 19.8336 4.97825 19.6554V6.75685C4.97825 6.57872 4.83386 6.43427 4.65567 6.43427Z" fill="#2C2C2C"/>
<path d="M2.64942 0.0219727C1.18852 0.0219727 0 1.2092 0 2.66849C0 4.12842 1.18852 5.3161 2.64942 5.3161C4.10916 5.3161 5.29671 4.12836 5.29671 2.66849C5.29677 1.2092 4.10916 0.0219727 2.64942 0.0219727Z" fill="#2C2C2C"/>
<path d="M14.8681 6.11365C13.2555 6.11365 12.0635 6.80687 11.3404 7.59455V6.75681C11.3404 6.57868 11.196 6.43423 11.0178 6.43423H7.17274C6.99455 6.43423 6.85016 6.57868 6.85016 6.75681V19.6554C6.85016 19.8336 6.99455 19.978 7.17274 19.978H11.179C11.3572 19.978 11.5016 19.8336 11.5016 19.6554V13.2736C11.5016 11.1231 12.0857 10.2853 13.5848 10.2853C15.2175 10.2853 15.3472 11.6284 15.3472 13.3842V19.6555C15.3472 19.8337 15.4916 19.978 15.6698 19.978H19.6775C19.8557 19.978 20.0001 19.8337 20.0001 19.6555V12.5804C20.0001 9.38262 19.3904 6.11365 14.8681 6.11365Z" fill="#2C2C2C"/>
</g>
<defs>
<clipPath id="clip0">
<rect width="20" height="20" fill="white"/>
</clipPath>
</defs>
</svg>
