<svg width="30" height="43" viewBox="0 0 30 43" fill="none" xmlns="http://www.w3.org/2000/svg">
<path d="M30 15.1195C30 6.78175 23.284 0 14.9863 0C6.69781 0 0 6.77946 0 15.1195C0 18.2293 0.943482 21.1416 2.57976 23.5216V23.572L14.9863 42.359L27.4749 23.5216H27.4476C29.0565 21.1393 30 18.2293 30 15.1195ZM14.9863 25.5435C9.26618 25.5435 4.62397 20.8639 4.62397 15.1195C4.62397 9.37052 9.26618 4.68411 14.9863 4.68411C20.7521 4.68411 25.3373 9.37052 25.3373 15.1195C25.3373 20.8639 20.7521 25.5435 14.9863 25.5435Z" fill="#D6A477"/>
</svg>
