<svg width="69" height="97" viewBox="0 0 69 97" fill="none" xmlns="http://www.w3.org/2000/svg">
<path d="M68.0755 34.309C68.0755 15.389 52.8356 0 34.0067 0C15.1986 0 0 15.3838 0 34.309C0 41.3655 2.14093 47.9743 5.85396 53.3747V53.4893L34.0067 96.1203L62.3457 53.3747H62.2836C65.9346 47.969 68.0755 41.3655 68.0755 34.309ZM34.0067 57.9628C21.0267 57.9628 10.4926 47.3441 10.4926 34.309C10.4926 21.2634 21.0267 10.6291 34.0067 10.6291C47.0902 10.6291 57.495 21.2634 57.495 34.309C57.495 47.3441 47.0902 57.9628 34.0067 57.9628Z" fill="#D6A577"/>
</svg>
