<svg width="38" height="48" viewBox="0 0 38 48" fill="none" xmlns="http://www.w3.org/2000/svg">
<path d="M34.8306 19.3844H33.8953V15.007C33.8953 6.91066 27.4703 0.147333 19.4399 0.0029585C19.2205 -0.000986167 18.782 -0.000986167 18.5627 0.0029585C10.532 0.147333 4.10716 6.91066 4.10716 15.007V19.3844H3.17178C1.7304 19.3844 0.554688 20.8717 0.554688 22.7087V44.6639C0.554688 46.4988 1.7304 48 3.17188 48H34.8306C36.272 48 37.4478 46.4988 37.4478 44.6639V22.7087C37.4478 20.8718 36.2721 19.3844 34.8306 19.3844ZM21.9672 33.664V40.298C21.9672 41.0577 21.3313 41.7006 20.571 41.7006H17.4317C16.6713 41.7006 16.0353 41.0577 16.0353 40.298V33.664C15.298 32.9382 14.8687 31.9346 14.8687 30.8243C14.8687 28.7204 16.495 26.9126 18.5628 26.8291C18.7819 26.8202 19.2209 26.8202 19.44 26.8291C21.5078 26.9126 23.1341 28.7204 23.1341 30.8243C23.1339 31.9346 22.7046 32.9382 21.9672 33.664ZM27.7308 19.3844H19.4399H18.5627H10.2718V15.007C10.2718 10.1841 14.1912 6.19638 19.0012 6.19638C23.8113 6.19638 27.7309 10.1841 27.7309 15.007V19.3844H27.7308Z" fill="black"/>
</svg>
