<svg width="100" height="100" viewBox="0 0 100 100" fill="none" xmlns="http://www.w3.org/2000/svg">
<path d="M63.712 12.6182H35.7408L16.4051 23.2193L11.4528 43.9869V56.8764H15.938C18.4105 56.8764 20.5727 59.083 20.5727 61.7939V81.4642H11.4528V86.3818H88V81.4642H78.8801V61.7939C78.8801 59.083 81.0423 56.8764 83.5148 56.8764H88V44.5824L83.0478 23.2193L63.712 12.6182ZM60.9394 34.1662L53.3552 17.5358H60.9394V34.1662ZM38.6629 17.5358H46.0976L38.6629 33.7761V17.5358ZM34.1778 38.65L22.1383 25.5727L34.1778 19.035V38.65ZM49.7264 20.5756L59.5531 42.1236H39.8997L49.7264 20.5756ZM65.4246 19.0555L77.3375 25.5853L65.4246 38.6467V19.0555ZM16.5676 42.1236L19.5535 29.683L31.0775 42.1236H16.5676ZM34.0283 61.7939C34.0283 59.083 36.0409 56.8764 38.5134 56.8764C40.986 56.8764 42.9986 59.083 42.9986 61.7939V81.4642H34.0283V61.7939ZM56.4542 81.4642V61.7939C56.4542 59.083 58.4668 56.8764 60.9394 56.8764C63.4119 56.8764 65.4246 59.083 65.4246 61.7939V81.4642H56.4542ZM68.5957 42.1236L79.9081 29.7207L82.8852 42.1236H68.5957Z" fill="#D6A577"/>
</svg>
