<svg width="100" height="100" viewBox="0 0 100 100" fill="none" xmlns="http://www.w3.org/2000/svg">
<path d="M77 39.1273C77 24.1677 64.9111 12 49.9754 12C35.0561 12 23 24.1636 23 39.1273C23 44.7067 24.6983 49.9321 27.6436 54.2021V54.2927L49.9754 88L72.4549 54.2021H72.4057C75.3017 49.9279 77 44.7067 77 39.1273ZM49.9754 57.8298C39.6791 57.8298 31.3232 49.4338 31.3232 39.1273C31.3232 28.8125 39.6791 20.4042 49.9754 20.4042C60.3537 20.4042 68.6071 28.8125 68.6071 39.1273C68.6071 49.4338 60.3537 57.8298 49.9754 57.8298Z" fill="#D6A577"/>
</svg>
