<svg width="44" height="51" viewBox="0 0 44 51" fill="none" xmlns="http://www.w3.org/2000/svg">
<path d="M3.14283 0H29.8461L44 14.0989V47.143C44 48.8794 42.5921 50.2858 40.8572 50.2858H3.14283C1.40793 50.2858 0 48.8794 0 47.143V3.14283C0 1.40646 1.40809 0 3.14283 0Z" fill="#E2574C"/>
<path d="M32.213 23.8278C32.7395 23.8278 32.9973 23.3689 32.9973 22.9242C32.9973 22.4637 32.7285 22.019 32.213 22.019H29.2148C28.6286 22.019 28.3018 22.5046 28.3018 23.0405V30.4089C28.3018 31.0658 28.6758 31.4303 29.1818 31.4303C29.6847 31.4303 30.0603 31.0658 30.0603 30.4089V28.3865H31.8737C32.4363 28.3865 32.7176 27.926 32.7176 27.4688C32.7176 27.021 32.4363 26.5761 31.8737 26.5761H30.0603V23.8278H32.213ZM22.0789 22.019H19.8851C19.2895 22.019 18.8668 22.4276 18.8668 23.0341V30.4152C18.8668 31.1679 19.4749 31.4036 19.9102 31.4036H22.2124C24.9372 31.4036 26.7365 29.6107 26.7365 26.8433C26.735 23.9174 25.0411 22.019 22.0789 22.019ZM22.1842 29.584H20.8469V23.8388H22.0522C23.8767 23.8388 24.6702 25.063 24.6702 26.7522C24.6702 28.3332 23.8907 29.584 22.1842 29.584ZM14.1479 22.019H11.9746C11.3602 22.019 11.0176 22.4244 11.0176 23.0405V30.4089C11.0176 31.0658 11.4104 31.4303 11.9384 31.4303C12.4663 31.4303 12.8591 31.0658 12.8591 30.4089V28.2576H14.2215C15.903 28.2576 17.2906 27.0664 17.2906 25.1508C17.2907 23.2762 15.9519 22.019 14.1479 22.019ZM14.1118 26.5292H12.8593V23.7492H14.1118C14.8849 23.7492 15.3768 24.3526 15.3768 25.1399C15.3752 25.9258 14.8849 26.5292 14.1118 26.5292Z" fill="white"/>
</svg>
