<svg width="14" height="14" viewBox="0 0 14 14" fill="none" xmlns="http://www.w3.org/2000/svg">
<g clip-path="url(#clip0)">
<path d="M6.70337 8.61026C5.50289 7.62314 4.70132 6.40507 4.27991 5.71199L3.96557 5.11938C4.07548 5.00145 4.91364 4.10393 5.27687 3.61697C5.73332 3.00548 5.07153 2.45321 5.07153 2.45321C5.07153 2.45321 3.20939 0.590807 2.785 0.221379C2.36062 -0.148567 1.8721 0.0569012 1.8721 0.0569012C0.980144 0.63322 0.0554743 1.13428 1.87251e-06 3.54404C-0.00206703 5.80017 1.7106 8.12717 3.56265 9.92867C5.41768 11.9632 7.96463 14.0023 10.427 14C12.8365 13.9451 13.3374 13.0205 13.9138 12.1286C13.9138 12.1286 14.1194 11.6404 13.7498 11.2157C13.38 10.791 11.5173 8.92848 11.5173 8.92848C11.5173 8.92848 10.9654 8.26657 10.3538 8.7234C9.89802 9.06413 9.07951 9.82199 8.88232 10.0057C8.8827 10.0064 7.51348 9.27645 6.70337 8.61026Z" fill="#2C2C2C"/>
</g>
<defs>
<clipPath id="clip0">
<rect width="14" height="14" fill="white"/>
</clipPath>
</defs>
</svg>
