<svg width="95" height="96" viewBox="0 0 95 96" fill="none" xmlns="http://www.w3.org/2000/svg">
<path d="M50.4625 6.76267C49.2852 6.76267 48.1189 6.8092 46.9649 6.89959V16.0774C46.9649 18.3197 45.2112 20.1746 42.9728 20.3002C39.9624 20.4691 37.0559 21.1727 34.334 22.3914C31.6057 23.6132 29.1341 25.3208 26.9879 27.4669C24.8417 29.613 23.1341 32.0846 21.9123 34.813C20.6936 37.5348 19.9899 40.4412 19.8211 43.4516C19.6955 45.6901 17.8406 47.4438 15.5983 47.4438H6.42059C6.33021 48.5978 6.28357 49.7643 6.28357 50.9416C6.28357 75.341 26.0632 95.1204 50.4625 95.1204C74.8618 95.1204 94.6413 75.3408 94.6413 50.9417C94.6413 26.5423 74.8618 6.76267 50.4625 6.76267ZM69.4321 69.9113C64.3651 74.9782 57.6284 77.7687 50.4624 77.7687C43.2965 77.7687 36.5597 74.9782 31.4926 69.9113C26.4256 64.8444 23.6351 58.1075 23.6351 50.9416C23.6351 43.7756 26.4257 37.0388 31.4926 31.9717C36.5596 26.9047 43.2965 24.1142 50.4624 24.1142C57.6283 24.1142 64.365 26.9047 69.4321 31.9717C74.4992 37.0387 77.2896 43.7756 77.2896 50.9416C77.2896 58.1075 74.4992 64.8444 69.4321 69.9113Z" fill="#D6A577"/>
<path d="M50.465 29.2734C38.5172 29.2734 28.7969 38.9938 28.7969 50.9416C28.7969 62.8894 38.5172 72.6097 50.465 72.6097C62.4129 72.6097 72.1332 62.8894 72.1332 50.9416C72.1331 38.9938 62.4128 29.2734 50.465 29.2734ZM50.465 33.9557C51.8044 33.9557 52.8905 35.0415 52.8905 36.3811C52.8905 37.7206 51.8046 38.8066 50.465 38.8066C49.1254 38.8066 48.0395 37.7207 48.0395 36.3811C48.0395 35.0416 49.1254 33.9557 50.465 33.9557ZM35.7606 53.5109C34.4212 53.5109 33.3352 52.4251 33.3352 51.0853C33.3352 49.746 34.421 48.6599 35.7606 48.6599C37.1002 48.6599 38.1861 49.7457 38.1861 51.0853C38.1861 52.425 37.1002 53.5109 35.7606 53.5109ZM50.465 68.2153C49.1255 68.2153 48.0395 67.1294 48.0395 65.7898C48.0395 64.4502 49.1253 63.3642 50.465 63.3642C51.8045 63.3642 52.8905 64.4502 52.8905 65.7898C52.8905 67.1294 51.8045 68.2153 50.465 68.2153ZM50.465 58.6836C46.1892 58.6836 42.7229 55.2174 42.7229 50.9417C42.7229 46.6658 46.1892 43.1995 50.465 43.1995C54.7407 43.1995 58.207 46.6658 58.207 50.9417C58.207 55.2174 54.7408 58.6836 50.465 58.6836ZM67.5946 51.0853C67.5946 52.4248 66.5088 53.5109 65.1692 53.5109C63.8297 53.5109 62.7438 52.4251 62.7438 51.0853C62.7438 49.746 63.8296 48.6599 65.1692 48.6599C66.5088 48.6599 67.5946 49.746 67.5946 51.0853Z" fill="#D6A577"/>
<path d="M1.8899 44.8644H6.69987H15.5995C16.4748 44.8644 17.1978 44.1811 17.2468 43.3072C17.6212 36.6317 20.3996 30.4085 25.1651 25.6429C29.9308 20.8774 36.1539 18.0992 42.8294 17.7247C43.7033 17.6757 44.3866 16.9527 44.3866 16.0774V7.1778V2.36773C44.3866 1.45654 43.6494 0.716431 42.7463 0.716431C42.7255 0.716431 42.7045 0.716843 42.6835 0.717669C19.6384 1.5912 1.11337 20.1162 0.239839 43.1612C0.204551 44.0928 0.957666 44.8644 1.8899 44.8644Z" fill="#D6A577"/>
</svg>
