<svg width="100" height="100" viewBox="0 0 100 100" fill="none" xmlns="http://www.w3.org/2000/svg">
<path d="M52.7746 15.1494C51.7719 15.1494 50.7785 15.1891 49.7957 15.2661V23.0826C49.7957 24.9923 48.3022 26.5721 46.3958 26.679C43.8319 26.8229 41.3565 27.4221 39.0383 28.4601C36.7147 29.5007 34.6097 30.955 32.7817 32.7828C30.9539 34.6106 29.4996 36.7156 28.459 39.0393C27.421 41.3574 26.8217 43.8327 26.6779 46.3966C26.571 48.3031 24.9912 49.7966 23.0815 49.7966H15.265C15.1881 50.7795 15.1483 51.773 15.1483 52.7757C15.1483 73.5561 31.9942 90.4018 52.7746 90.4018C73.5549 90.4018 90.4007 73.5559 90.4007 52.7758C90.4007 31.9953 73.5549 15.1494 52.7746 15.1494ZM68.9306 68.9318C64.6151 73.2471 58.8776 75.6238 52.7745 75.6238C46.6714 75.6238 40.9339 73.2471 36.6184 68.9318C32.3028 64.6164 29.9263 58.8787 29.9263 52.7757C29.9263 46.6725 32.3029 40.935 36.6184 36.6195C40.9338 32.304 46.6714 29.9274 52.7745 29.9274C58.8775 29.9274 64.6151 32.304 68.9306 36.6195C73.2461 40.9349 75.6227 46.6725 75.6227 52.7757C75.6227 58.8787 73.2461 64.6164 68.9306 68.9318Z" fill="#D6A577"/>
<path d="M52.7767 34.3214C42.601 34.3214 34.3224 42.6 34.3224 52.7757C34.3224 62.9513 42.601 71.2299 52.7767 71.2299C62.9525 71.2299 71.2311 62.9513 71.2311 52.7757C71.231 42.6 62.9524 34.3214 52.7767 34.3214ZM52.7767 38.3091C53.9174 38.3091 54.8424 39.2339 54.8424 40.3749C54.8424 41.5157 53.9176 42.4406 52.7767 42.4406C51.6358 42.4406 50.711 41.5158 50.711 40.3749C50.711 39.234 51.6358 38.3091 52.7767 38.3091ZM40.2533 54.9639C39.1126 54.9639 38.1876 54.0391 38.1876 52.8981C38.1876 51.7574 39.1124 50.8324 40.2533 50.8324C41.3942 50.8324 42.319 51.7572 42.319 52.8981C42.319 54.0391 41.3942 54.9639 40.2533 54.9639ZM52.7767 67.4873C51.6359 67.4873 50.711 66.5624 50.711 65.4215C50.711 64.2806 51.6357 63.3557 52.7767 63.3557C53.9175 63.3557 54.8424 64.2806 54.8424 65.4215C54.8424 66.5624 53.9175 67.4873 52.7767 67.4873ZM52.7767 59.3694C49.1351 59.3694 46.183 56.4173 46.183 52.7757C46.183 49.134 49.1351 46.1819 52.7767 46.1819C56.4182 46.1819 59.3704 49.134 59.3704 52.7757C59.3704 56.4173 56.4183 59.3694 52.7767 59.3694ZM67.3656 52.8981C67.3656 54.0389 66.4409 54.9639 65.2999 54.9639C64.1591 54.9639 63.2343 54.0391 63.2343 52.8981C63.2343 51.7574 64.159 50.8324 65.2999 50.8324C66.4409 50.8324 67.3656 51.7574 67.3656 52.8981Z" fill="#D6A577"/>
<path d="M11.4063 47.5999H15.5029H23.0825C23.828 47.5999 24.4437 47.0179 24.4855 46.2736C24.8044 40.5883 27.1706 35.2881 31.2293 31.2293C35.2881 27.1706 40.5882 24.8045 46.2736 24.4856C47.0179 24.4438 47.5998 23.8281 47.5998 23.0826V15.503V11.4064C47.5998 10.6303 46.972 10 46.2028 10C46.1851 10 46.1673 10.0004 46.1493 10.0011C26.5223 10.745 10.745 26.5224 10.001 46.1493C9.97096 46.9427 10.6124 47.5999 11.4063 47.5999Z" fill="#D6A577"/>
</svg>
