<svg width="499" height="498" viewBox="0 0 499 498" fill="none" xmlns="http://www.w3.org/2000/svg">
<path d="M323 290C323 237.064 279.936 194 227 194C174.064 194 131 237.064 131 290C131 342.936 174.064 386 227 386C279.936 386 323 342.936 323 290ZM147 290C147 281.64 148.304 273.584 150.688 266H180.912C179.704 273.344 179 281.32 179 290C179 298.68 179.704 306.656 180.92 314H150.696C148.304 306.416 147 298.36 147 290ZM195 290C195 281.144 195.872 273.232 197.232 266H256.744C258.12 273.232 259 281.152 259 290C259 298.856 258.128 306.768 256.768 314H197.256C195.88 306.768 195 298.848 195 290ZM226.976 211.92C233.184 217.048 245.04 229.056 252.472 250H201.472C208.856 229.04 220.688 217.072 226.976 211.92ZM307 290C307 298.36 305.696 306.416 303.312 314H273.08C274.288 306.656 275 298.68 275 290C275 281.32 274.296 273.344 273.08 266H303.304C305.696 273.584 307 281.64 307 290ZM252.528 330C245.144 350.976 233.296 362.944 227.024 368.08C220.816 362.952 208.952 350.944 201.528 330H252.528ZM250.696 366.416C257.512 357.776 264.568 345.8 269.328 330H296.176C286.184 347.208 270.032 360.408 250.696 366.416ZM296.176 250H269.328C264.568 234.208 257.512 222.232 250.696 213.584C270.032 219.592 286.184 232.792 296.176 250ZM203.304 213.584C196.488 222.224 189.432 234.2 184.672 250H157.824C167.816 232.792 183.968 219.592 203.304 213.584ZM157.824 330H184.672C189.432 345.792 196.488 357.768 203.304 366.416C183.968 360.408 167.816 347.208 157.824 330Z" fill="#D6A577"/>
<path d="M331.352 350.336L367.92 359.48C341.872 415.552 288.384 450 226.28 450C155.912 450 94.3521 405.264 73.1041 338.688L70.6721 331.056L24.9521 345.704L27.3841 353.312C55.0001 439.856 134.936 498 226.28 498C310.384 498 384.04 448.576 415.872 371.464L453.992 380.992L423.328 258.352L331.352 350.336ZM406.008 352.504L403.504 359.192C375.176 434.944 307.272 482 226.28 482C144.624 482 72.8401 431.696 45.2081 356.016L60.4641 351.128C85.9681 420.168 151.616 466 226.28 466C298.128 466 359.488 424.224 386.424 356.976L389.832 348.464L362.648 341.664L414.664 289.648L432 359.008L406.008 352.504Z" fill="#D6A577"/>
<path d="M447.216 83.8878C425.344 88.9358 407.112 101.728 395 118.952V115.312C395 64.2638 358.456 21.1278 308.096 12.7358L235 0.551758V56.6798C235 65.5038 236.16 74.0638 238.224 82.2798C234.712 82.1038 231.2 81.9998 227.72 81.9998C143.616 81.9998 69.9598 131.424 38.1278 208.536L0.0078125 199.008L30.6718 321.648L122.656 229.664L86.0878 220.52C112.128 164.448 165.616 130 227.72 130C242.672 130 257.448 132.072 271.704 136.056C285.608 147.824 302.744 156.072 321.904 159.264L379 168.776V250H395V208.368L443.184 197.248C476.048 189.664 499 160.816 499 127.088V71.9438L447.216 83.8878ZM67.5758 223.024L64.1678 231.536L91.3518 238.336L39.3358 290.352L21.9998 220.992L47.9998 227.496L50.5038 220.808C78.8238 145.056 146.728 97.9998 227.72 97.9998C233.08 97.9998 238.496 98.2878 243.888 98.7278C246.536 104.744 249.704 110.48 253.408 115.84C244.928 114.624 236.344 114 227.72 114C155.872 114 94.5038 155.776 67.5758 223.024ZM251 56.6798V19.4478L305.472 28.5278C348.072 35.6238 379 72.1278 379 115.32V142.688L296.656 60.3438L285.344 71.6558L363.688 150L324.528 143.472C281.928 136.376 251 99.8718 251 56.6798ZM483 127.088C483 153.32 465.152 175.76 439.592 181.648L412.384 187.928L456.656 143.656L445.344 132.344L395 182.688V169.64C395 135.912 417.952 107.064 450.808 99.4798L483 92.0558V127.088Z" fill="#D6A577"/>
</svg>
