<svg width="100" height="100" viewBox="0 0 100 100" fill="none" xmlns="http://www.w3.org/2000/svg">
<path d="M49.5964 43.9522C57.5914 43.9522 64.0725 37.4711 64.0725 29.4761C64.0725 21.4812 57.5914 15 49.5964 15C41.6015 15 35.1203 21.4812 35.1203 29.4761C35.1203 37.4711 41.6015 43.9522 49.5964 43.9522Z" fill="#D6A577"/>
<path d="M78.8815 43.9518C83.9357 43.9518 88.033 39.8545 88.033 34.8003C88.033 29.746 83.9357 25.6487 78.8815 25.6487C73.8272 25.6487 69.7299 29.746 69.7299 34.8003C69.7299 39.8545 73.8272 43.9518 78.8815 43.9518Z" fill="#D6A577"/>
<path d="M20.3114 43.9518C25.3657 43.9518 29.463 39.8545 29.463 34.8003C29.463 29.746 25.3657 25.6487 20.3114 25.6487C15.2571 25.6487 11.1598 29.746 11.1598 34.8003C11.1598 39.8545 15.2571 43.9518 20.3114 43.9518Z" fill="#D6A577"/>
<path d="M29.3282 52.1703C25.7258 49.2188 22.4633 49.6095 18.298 49.6095C12.0683 49.6095 7 54.6479 7 60.8393V79.011C7 81.6999 9.19471 83.8863 11.8936 83.8863C23.5454 83.8863 22.1417 84.0971 22.1417 83.3838C22.1417 70.5074 20.6165 61.0644 29.3282 52.1703V52.1703Z" fill="#D6A577"/>
<path d="M53.5081 48.4726C46.4261 47.9223 40.2703 48.479 34.9608 52.5619C26.0755 59.1923 27.7854 68.1197 27.7854 79.0411C27.7854 81.9306 30.3089 84.3255 33.4577 84.3255C67.6469 84.3255 69.0076 85.3529 71.035 81.1702C71.6999 79.7557 71.5177 80.2053 71.5177 66.6737C71.5177 55.926 61.5284 48.4726 53.5081 48.4726V48.4726Z" fill="#D6A577"/>
<path d="M80.8927 49.6095C76.7047 49.6095 73.4602 49.2228 69.8626 52.1703C78.5092 60.9984 77.0491 69.797 77.0491 83.3838C77.0491 84.1016 75.8838 83.8863 87.1225 83.8863C89.9179 83.8863 92.1908 81.6217 92.1908 78.838V60.8393C92.1908 54.6479 87.1225 49.6095 80.8927 49.6095Z" fill="#D6A577"/>
</svg>
