<svg width="108" height="88" viewBox="0 0 108 88" fill="none" xmlns="http://www.w3.org/2000/svg">
<path d="M53.6385 36.8693C63.706 36.8693 71.8673 28.708 71.8673 18.6405C71.8673 8.57309 63.706 0.411804 53.6385 0.411804C43.5711 0.411804 35.4098 8.57309 35.4098 18.6405C35.4098 28.708 43.5711 36.8693 53.6385 36.8693Z" fill="#D6A577"/>
<path d="M90.5151 36.8688C96.8796 36.8688 102.039 31.7093 102.039 25.3449C102.039 18.9804 96.8796 13.8209 90.5151 13.8209C84.1506 13.8209 78.9912 18.9804 78.9912 25.3449C78.9912 31.7093 84.1506 36.8688 90.5151 36.8688Z" fill="#D6A577"/>
<path d="M16.7621 36.8688C23.1266 36.8688 28.286 31.7093 28.286 25.3449C28.286 18.9804 23.1266 13.8209 16.7621 13.8209C10.3976 13.8209 5.23816 18.9804 5.23816 25.3449C5.23816 31.7093 10.3976 36.8688 16.7621 36.8688Z" fill="#D6A577"/>
<path d="M28.1163 47.2177C23.58 43.5011 19.4719 43.9931 14.2268 43.9931C6.38215 43.9931 0 50.3375 0 58.134V81.0162C0 84.4022 2.76364 87.1553 6.16215 87.1553C20.8344 87.1553 19.0668 87.4208 19.0668 86.5226C19.0668 70.3082 17.1463 58.4174 28.1163 47.2177Z" fill="#D6A577"/>
<path d="M58.5644 42.5615C49.6465 41.8685 41.895 42.5695 35.209 47.7108C24.0204 56.0599 26.1736 67.3016 26.1736 81.0541C26.1736 84.6927 29.3513 87.7084 33.3163 87.7084C76.3683 87.7084 78.0818 89.0022 80.6348 83.7352C81.472 81.9541 81.2425 82.5201 81.2425 65.4807C81.2425 51.9469 68.6638 42.5615 58.5644 42.5615Z" fill="#D6A577"/>
<path d="M93.0479 43.9931C87.7741 43.9931 83.6886 43.5061 79.1584 47.2177C90.0464 58.3342 88.2079 69.4138 88.2079 86.5226C88.2079 87.4265 86.7406 87.1554 100.893 87.1554C104.413 87.1554 107.275 84.3037 107.275 80.7983V58.1339C107.275 50.3375 100.893 43.9931 93.0479 43.9931Z" fill="#D6A577"/>
</svg>
