<svg width="20" height="18" viewBox="0 0 20 18" fill="none" xmlns="http://www.w3.org/2000/svg">
<path d="M19.5468 2.70243C19.2326 2.84178 18.9096 2.95939 18.5795 3.05488C18.9703 2.61294 19.2682 2.09294 19.4501 1.52391C19.4909 1.39636 19.4486 1.25675 19.3438 1.17333C19.239 1.08984 19.0936 1.07984 18.9783 1.14817C18.2773 1.56391 17.521 1.86268 16.7281 2.03739C15.9293 1.25688 14.8444 0.812683 13.7229 0.812683C11.3554 0.812683 9.42937 2.73868 9.42937 5.10604C9.42937 5.29249 9.44117 5.47791 9.46453 5.66075C6.52679 5.40282 3.79563 3.95888 1.92014 1.6583C1.8533 1.5763 1.75034 1.5321 1.64492 1.54055C1.53943 1.54881 1.44466 1.6083 1.39137 1.69972C1.01098 2.35243 0.809885 3.09894 0.809885 3.85849C0.809885 4.89301 1.17924 5.87456 1.83169 6.64153C1.6333 6.57282 1.44079 6.48695 1.25705 6.38495C1.1584 6.33004 1.03801 6.33088 0.940014 6.38707C0.841949 6.44327 0.780465 6.54662 0.777885 6.65959C0.777433 6.67862 0.777433 6.69766 0.777433 6.71695C0.777433 8.26114 1.60853 9.6514 2.87917 10.4091C2.77001 10.3982 2.66092 10.3824 2.55253 10.3617C2.44079 10.3404 2.32588 10.3795 2.25053 10.4648C2.17505 10.5499 2.15008 10.6686 2.18485 10.777C2.65517 12.2454 3.86608 13.3255 5.32995 13.6548C4.11582 14.4152 2.72737 14.8135 1.26982 14.8135C0.965691 14.8135 0.65982 14.7957 0.360465 14.7602C0.211756 14.7426 0.0695621 14.8304 0.0189169 14.9718C-0.0317283 15.1133 0.0219492 15.271 0.148465 15.3521C2.02092 16.5527 4.18601 17.1873 6.40956 17.1873C10.7808 17.1873 13.5153 15.126 15.0395 13.3968C16.9401 11.2406 18.0302 8.38656 18.0302 5.56662C18.0302 5.44882 18.0284 5.32985 18.0248 5.21127C18.7747 4.6463 19.4203 3.96256 19.9456 3.17668C20.0254 3.05733 20.0168 2.89959 19.9243 2.78972C19.832 2.67978 19.6781 2.64423 19.5468 2.70243Z" fill="#2C2C2C"/>
</svg>
